<?xml version="1.0" standalone="no"?>
<!DOCTYPE svg PUBLIC "-//W3C//DTD SVG 20010904//EN"
 "http://www.w3.org/TR/2001/REC-SVG-20010904/DTD/svg10.dtd">
<svg version="1.0" xmlns="http://www.w3.org/2000/svg"
 width="676.000000pt" height="676.000000pt" viewBox="0 0 676.000000 676.000000"
 preserveAspectRatio="xMidYMid meet">
<metadata>
Created by potrace 1.11, written by Peter Selinger 2001-2013
</metadata>
<g transform="translate(0.000000,676.000000) scale(0.100000,-0.100000)"
fill="#000000" stroke="none">
<path d="M5130 4638 c-58 -33 -132 -74 -165 -92 -33 -18 -140 -76 -237 -130
l-178 -98 0 -168 c0 -151 -2 -169 -17 -175 -10 -3 -83 -31 -163 -61 -80 -31
-154 -61 -165 -68 -19 -13 -20 -24 -20 -286 0 -196 3 -274 11 -277 14 -5 21
72 30 328 3 97 9 181 13 186 7 11 440 157 446 151 2 -2 6 -156 7 -341 l3 -337
-314 0 c-173 0 -312 -3 -309 -6 7 -6 972 -27 1853 -39 209 -3 421 -8 471 -11
l91 -6 -7 -36 c-4 -20 -31 -150 -61 -288 l-53 -251 -1181 -6 c-649 -4 -1866
-10 -2705 -13 -839 -4 -1592 -9 -1675 -13 -82 -3 498 -10 1290 -14 792 -4
2087 -12 2879 -18 791 -5 1440 -8 1442 -6 5 4 152 634 160 685 l6 42 -188 -7
-189 -6 3 253 3 253 -33 35 c-18 18 -81 79 -140 134 l-108 100 -123 -31 c-68
-17 -131 -31 -140 -31 -15 0 -17 17 -17 163 l0 164 -196 184 c-108 101 -202
187 -208 190 -6 3 -58 -21 -116 -53z m110 -693 l0 -655 205 0 205 0 0 329 c0
203 4 332 10 336 8 5 93 16 228 30 l42 5 0 -350 0 -349 63 -4 c49 -2 -502 -10
-853 -12 l-71 0 -2 309 -2 308 -35 14 c-19 7 -99 38 -177 69 -78 30 -151 55
-162 55 -11 0 -40 -9 -64 -19 -25 -11 -47 -18 -49 -16 -3 3 4 94 21 288 1 8
610 315 629 316 9 1 12 -136 12 -654z"/>
<path d="M734 3779 c-22 -36 -524 -1025 -524 -1033 0 -3 31 -6 70 -6 l70 0 70
140 70 140 303 -2 302 -3 70 -135 70 -135 68 -3 c37 -2 67 1 67 6 0 5 -68 142
-150 303 -83 162 -201 394 -263 516 l-112 223 -52 0 c-28 0 -55 -5 -59 -11z
m117 -289 c87 -164 169 -327 169 -333 0 -4 -104 -7 -231 -7 -127 0 -229 3
-227 8 2 4 20 39 39 77 20 39 68 134 108 213 39 79 76 142 82 140 6 -2 33 -46
60 -98z"/>
<path d="M2168 3392 l-3 -398 -25 -49 c-38 -74 -90 -97 -233 -103 -128 -5
-232 10 -279 41 -56 38 -78 96 -78 209 l0 98 -65 0 -65 0 1 -117 c0 -128 13
-176 61 -236 81 -102 336 -149 556 -102 123 26 195 75 236 165 20 43 21 64 24
468 l3 422 -65 0 -65 0 -3 -398z"/>
<path d="M2612 3268 l3 -523 63 -3 62 -3 0 231 0 230 278 0 c226 0 289 3 333
16 138 41 217 158 207 308 -5 81 -38 148 -96 191 -84 65 -107 68 -500 73
l-352 4 2 -524z m742 358 c96 -73 88 -218 -15 -276 -44 -25 -47 -25 -321 -28
l-278 -3 0 171 0 171 288 -3 289 -3 37 -29z"/>
<path d="M3005 3111 c-118 -30 -179 -132 -153 -255 21 -100 113 -162 228 -154
63 5 127 39 157 85 13 20 12 23 -7 33 -19 10 -26 8 -54 -18 -43 -41 -68 -52
-118 -52 -61 0 -109 28 -135 80 -73 141 57 285 200 222 25 -11 51 -29 58 -40
10 -16 17 -18 31 -11 54 29 -30 103 -128 113 -27 3 -62 1 -79 -3z"/>
<path d="M6021 3106 c-91 -30 -147 -119 -139 -221 13 -150 173 -231 316 -159
113 56 144 207 65 312 -49 65 -156 95 -242 68z m158 -63 c45 -34 71 -82 71
-132 0 -95 -64 -161 -155 -161 -94 0 -157 65 -157 161 1 66 26 108 82 137 53
28 117 25 159 -5z"/>
<path d="M3473 3098 c-12 -14 -193 -374 -193 -383 0 -3 13 -5 28 -5 24 0 32 8
54 54 l27 53 89 2 c125 2 135 -1 162 -60 20 -42 28 -49 52 -49 15 0 28 3 28 8
0 4 -45 93 -100 197 -99 190 -120 217 -147 183z m66 -143 c23 -41 41 -79 41
-85 0 -6 -31 -10 -80 -10 -46 0 -80 4 -80 10 0 9 72 160 76 160 1 0 21 -34 43
-75z"/>
<path d="M3780 2910 l0 -200 30 0 30 0 0 85 0 85 78 0 77 -1 48 -84 c44 -77
51 -85 78 -85 l30 0 -32 58 c-18 31 -38 66 -46 77 -17 25 -17 45 0 45 23 0 68
56 73 91 7 49 -22 101 -66 116 -20 7 -93 12 -167 12 l-133 1 0 -200z m290 130
c11 -11 20 -31 20 -45 0 -14 -9 -34 -20 -45 -17 -17 -33 -20 -123 -20 -57 0
-106 2 -108 4 -2 2 -2 32 -1 65 l4 61 104 0 c91 0 107 -3 124 -20z"/>
<path d="M4182 3096 c2 -8 44 -98 93 -200 73 -150 94 -186 110 -186 17 0 39
36 115 191 52 105 97 195 98 200 2 5 -9 9 -25 9 -27 0 -33 -9 -103 -151 -41
-83 -78 -153 -82 -155 -4 -3 -42 65 -84 150 -68 138 -79 156 -101 156 -16 0
-23 -5 -21 -14z"/>
<path d="M4660 2921 c-52 -104 -96 -194 -98 -200 -2 -6 9 -11 25 -11 25 0 32
7 55 53 l25 52 96 3 c53 2 105 1 115 -2 10 -4 29 -29 42 -56 20 -43 28 -50 52
-50 15 0 28 3 28 8 -1 4 -45 93 -100 197 -82 157 -103 190 -122 193 -21 2 -33
-18 -118 -187z m164 25 c20 -38 36 -73 36 -78 0 -4 -36 -8 -80 -8 -46 0 -80 4
-80 10 0 19 74 160 81 152 4 -4 23 -38 43 -76z"/>
<path d="M5067 3104 c-4 -4 -7 -94 -7 -201 l0 -193 166 0 165 0 -3 23 c-3 21
-7 22 -135 25 l-133 3 -2 172 c-3 164 -4 172 -23 175 -12 2 -24 0 -28 -4z"/>
<path d="M5447 3103 c-4 -3 -7 -93 -7 -200 l0 -193 30 0 30 0 0 95 0 95 120 0
120 0 0 -95 c0 -95 0 -95 25 -95 l25 0 0 200 0 200 -25 0 c-25 0 -25 -1 -25
-80 l0 -80 -120 0 -120 0 0 80 c0 77 -1 80 -23 80 -13 0 -27 -3 -30 -7z"/>
<path d="M887 2383 c-4 -3 0 -11 9 -17 13 -10 13 -18 0 -71 -8 -33 -17 -73
-20 -88 -4 -16 -16 -32 -29 -37 -16 -6 -4 -9 47 -9 58 -1 67 1 53 12 -13 9
-16 20 -11 44 5 26 12 32 43 37 59 11 88 26 100 53 16 35 6 59 -31 72 -34 12
-151 15 -161 4z m129 -28 c10 -26 -6 -65 -31 -77 -14 -6 -27 -9 -29 -7 -3 2 1
25 7 52 8 35 15 47 29 47 10 0 21 -7 24 -15z"/>
<path d="M1118 2385 c-4 -5 -1 -13 8 -19 14 -10 13 -21 -7 -100 -17 -68 -27
-90 -43 -96 -15 -6 0 -9 49 -9 51 0 65 2 53 10 -13 7 -16 18 -11 42 9 53 20
52 47 -2 25 -49 28 -51 68 -51 l41 0 -20 23 c-11 12 -27 35 -36 52 -14 29 -14
30 14 47 35 22 48 63 26 86 -17 17 -175 31 -189 17z m116 -21 c19 -7 21 -55 4
-72 -7 -7 -22 -12 -34 -12 -20 0 -21 2 -11 45 11 46 14 49 41 39z"/>
<path d="M1425 2375 c-45 -23 -75 -73 -75 -127 0 -40 5 -50 32 -73 27 -23 39
-26 79 -23 115 11 181 137 110 209 -24 23 -38 29 -73 29 -24 0 -56 -7 -73 -15z
m106 -36 c16 -64 -25 -161 -71 -167 -47 -7 -65 62 -35 135 23 53 35 64 68 61
23 -2 32 -9 38 -29z"/>
<path d="M1700 2381 c0 -5 5 -11 12 -13 9 -3 8 -20 -1 -69 -17 -83 -36 -129
-55 -129 -18 0 -21 16 -6 25 17 11 11 33 -10 40 -23 7 -50 -10 -50 -31 0 -24
39 -54 69 -54 54 0 85 39 106 131 14 61 24 83 37 87 38 10 15 22 -42 22 -33 0
-60 -4 -60 -9z"/>
<path d="M1840 2381 c0 -5 5 -11 12 -13 20 -7 -20 -175 -46 -193 -18 -14 -10
-15 86 -15 l106 0 11 32 c15 42 5 48 -22 15 -27 -34 -84 -47 -93 -23 -4 10 -2
31 3 49 10 38 42 49 50 18 8 -29 21 -26 29 7 3 15 8 35 11 45 6 22 -2 22 -27
-3 -11 -11 -27 -20 -35 -20 -13 0 -15 7 -9 38 9 50 11 52 44 52 18 0 34 -8 44
-22 18 -25 24 -22 28 13 3 24 2 24 -94 27 -58 2 -98 -1 -98 -7z"/>
<path d="M2067 2383 c-8 -14 -17 -63 -13 -63 3 0 16 11 30 25 21 21 56 34 56
21 0 -3 -9 -45 -21 -94 -16 -70 -25 -92 -42 -100 -18 -9 -9 -11 47 -11 58 -1
67 1 53 12 -17 11 -16 18 4 105 18 76 25 92 41 92 11 0 23 -11 28 -26 12 -32
30 -22 30 17 l0 29 -104 0 c-58 0 -107 -3 -109 -7z"/>
<path d="M2342 2370 c-105 -64 -93 -205 18 -217 86 -8 160 58 160 143 0 35 -5
47 -31 68 -38 32 -99 35 -147 6z m109 -34 c11 -39 -7 -116 -33 -143 -30 -32
-66 -30 -79 5 -14 35 5 126 33 154 29 29 70 21 79 -16z"/>
<path d="M2588 2370 c-55 -43 -44 -90 28 -120 35 -15 44 -24 44 -44 0 -24 -16
-36 -50 -36 -17 0 -53 36 -63 63 -7 18 -15 6 -22 -35 -6 -32 -4 -37 11 -37 11
0 37 -3 60 -6 52 -9 111 16 120 51 12 46 -3 70 -52 89 -50 19 -63 37 -44 60
21 26 59 18 78 -15 20 -36 28 -37 36 -7 13 48 9 52 -57 55 -52 3 -68 -1 -89
-18z"/>
<path d="M2899 2369 c-16 -16 -20 -29 -16 -53 4 -28 0 -36 -29 -60 -40 -32
-45 -67 -12 -90 28 -20 51 -20 88 -1 18 9 31 11 35 5 3 -6 30 -10 58 -9 50 1
51 1 24 13 -16 7 -32 19 -37 26 -10 16 25 66 60 86 24 13 23 13 -24 14 -41 0
-47 -2 -36 -15 9 -11 9 -19 -3 -35 -14 -21 -14 -21 -31 4 -21 33 -21 35 9 58
44 35 27 78 -32 78 -20 0 -41 -8 -54 -21z m81 -18 c0 -10 -7 -24 -16 -32 -13
-10 -17 -10 -25 2 -18 28 -9 49 23 49 11 0 18 -7 18 -19z m-54 -122 c11 -23
13 -34 5 -42 -24 -24 -61 23 -47 59 9 23 24 16 42 -17z"/>
<path d="M3255 2375 c-43 -23 -68 -61 -73 -116 -4 -43 -1 -51 26 -79 40 -39
91 -41 145 -5 20 14 37 30 37 35 0 15 -9 12 -37 -10 -34 -27 -78 -26 -97 2
-22 31 -20 66 7 118 20 40 26 45 57 45 30 0 37 -5 50 -32 18 -39 26 -41 34
-10 15 57 10 62 -57 65 -41 1 -72 -3 -92 -13z"/>
<path d="M3480 2368 c-68 -47 -91 -138 -46 -183 51 -51 129 -45 188 15 33 32
38 44 38 83 0 60 -7 75 -41 92 -42 22 -101 19 -139 -7z m108 -10 c34 -34 -5
-172 -52 -184 -39 -10 -56 11 -56 68 0 50 10 78 38 111 17 20 53 22 70 5z"/>
<path d="M3707 2383 c-4 -3 1 -12 10 -18 16 -12 16 -18 -2 -94 -15 -68 -23
-85 -44 -96 -25 -14 -24 -14 28 -15 53 0 54 1 37 19 -17 19 -16 33 11 125 5
20 6 20 20 0 8 -10 28 -47 46 -81 46 -91 60 -86 89 34 18 78 28 100 45 109 31
15 18 24 -34 24 -46 0 -52 -6 -28 -24 13 -9 14 -20 4 -68 -7 -32 -15 -58 -18
-58 -3 0 -23 34 -44 75 -38 73 -40 75 -76 75 -21 0 -41 -3 -44 -7z"/>
<path d="M3998 2369 c-21 -15 -28 -29 -28 -55 0 -32 4 -36 55 -61 42 -21 55
-32 53 -47 -8 -49 -77 -45 -104 5 -18 35 -29 30 -39 -18 l-6 -31 64 -7 c71 -8
117 8 137 46 21 37 8 62 -45 90 -39 20 -50 31 -50 50 0 20 6 25 33 27 29 3 35
0 45 -27 17 -46 32 -41 38 13 l4 29 -65 4 c-54 3 -70 0 -92 -18z"/>
<path d="M4190 2381 c0 -5 6 -11 12 -13 10 -4 10 -17 0 -64 -24 -119 -15 -143
61 -151 63 -6 102 22 121 88 9 29 16 61 16 71 0 11 11 30 25 44 14 14 25 27
25 29 0 3 -20 5 -45 5 -45 0 -58 -12 -29 -28 14 -8 13 -15 -2 -77 -21 -81 -42
-107 -87 -103 -25 2 -33 8 -35 27 -6 42 20 142 40 154 31 20 20 27 -42 27 -33
0 -60 -4 -60 -9z"/>
<path d="M4470 2382 c0 -4 5 -13 11 -19 17 -17 -17 -163 -43 -185 -19 -17 -16
-18 84 -18 l105 0 10 35 c6 19 9 35 6 35 -3 0 -21 -13 -40 -30 -36 -32 -70
-39 -79 -15 -3 8 2 51 12 96 13 62 22 83 36 87 38 10 15 22 -42 22 -33 0 -60
-4 -60 -8z"/>
<path d="M4680 2371 c-11 -21 -14 -51 -5 -51 3 0 16 12 29 27 14 16 29 24 38
20 24 -9 -17 -181 -46 -195 -16 -8 -6 -11 48 -11 60 -1 67 1 52 12 -18 13 -18
17 -1 94 10 44 21 86 25 93 11 17 41 5 47 -20 10 -37 33 -15 33 31 0 18 -8 19
-105 19 -93 0 -105 -2 -115 -19z"/>
<path d="M4960 2370 c-72 -38 -98 -137 -49 -186 36 -36 94 -42 146 -16 49 26
71 58 79 116 6 41 4 48 -24 75 -25 25 -38 31 -74 31 -24 -1 -59 -9 -78 -20z
m105 -72 c0 -75 -23 -120 -65 -126 -47 -7 -65 62 -35 135 23 54 35 64 69 61
l31 -3 0 -67z"/>
<path d="M5188 2385 c-4 -5 -1 -13 7 -19 22 -17 -19 -184 -49 -196 -15 -6 -1
-9 49 -9 54 0 66 2 52 10 -14 8 -17 18 -12 42 11 52 21 52 46 -2 l24 -50 159
-1 c135 0 157 2 142 13 -16 12 -17 16 -5 35 11 17 23 22 56 22 39 0 43 -2 43
-25 0 -13 -7 -28 -16 -33 -29 -16 225 -23 263 -7 73 30 67 101 -11 130 -48 18
-63 39 -45 61 24 29 89 6 89 -32 0 -8 4 -14 9 -14 11 0 21 25 21 53 0 20 -6
22 -63 25 -52 3 -68 -1 -90 -19 -23 -17 -28 -28 -25 -58 3 -32 8 -38 51 -59
52 -25 66 -44 47 -67 -28 -33 -86 -12 -103 38 -8 21 -27 13 -27 -11 0 -9 -4
-22 -8 -29 -17 -26 -32 7 -48 105 -22 134 -31 134 -119 -3 -66 -104 -101 -133
-126 -108 -16 16 30 185 52 190 35 10 8 23 -45 23 -58 0 -74 -7 -50 -24 13
-10 13 -21 -5 -95 -22 -92 -30 -105 -57 -99 -16 3 -73 72 -74 90 0 4 12 13 27
20 36 17 53 62 31 84 -17 17 -177 33 -190 19z m116 -21 c35 -14 8 -89 -30 -82
-18 3 -19 7 -11 46 8 43 13 47 41 36z m382 -111 c-2 -2 -16 -3 -30 -1 l-25 3
21 34 22 34 9 -32 c4 -18 6 -35 3 -38z"/>
</g>
</svg>
